<?xml version="1.0" encoding="utf-8"?>
<!-- Generator: Adobe Illustrator 16.0.0, SVG Export Plug-In . SVG Version: 6.00 Build 0)  -->
<!DOCTYPE svg PUBLIC "-//W3C//DTD SVG 1.1//EN" "http://www.w3.org/Graphics/SVG/1.1/DTD/svg11.dtd">
<svg version="1.1" id="Layer_1" xmlns="http://www.w3.org/2000/svg" xmlns:xlink="http://www.w3.org/1999/xlink" x="0px" y="0px"
	 width="15px" height="17px" viewBox="12.5 10.5 15 17" enable-background="new 12.5 10.5 15 17" xml:space="preserve">
<g transform="translate(0.000000,40.000000) scale(0.100000,-0.100000)">
	<path fill="#FC6C7F" d="M150.132,260.762c-7.524-7.896-13.882-15.762-13.882-17.666c0-1.816,7.891-11.587,17.637-21.353
		l17.598-17.964l-23.223-23.643L125,156.514l16.143-15.752L157.256,125l40.137,40.488l40.107,40.107l-34.893,34.897
		C183.477,259.243,167.012,275,165.884,275C164.727,275,157.637,268.618,150.132,260.762z"/>
	<path fill="#FC6C7F" d="M225.137,260.762c-7.5-7.896-13.945-15.762-13.945-18.018c0-1.86,6.777-10.488,15.117-18.398l14.941-14.58
		l16.816,16.484L275,242.744l-15.762,16.113C250.625,267.852,242.422,275,241.25,275C240.107,275,232.578,268.618,225.137,260.762z"
		/>
	<path fill="#FC6C7F" d="M226.309,183.066l-16.582-16.816l15.791-15.732l15.732-16.143l16.816,16.934L275,168.486l-16.143,15.752
		L242.715,200L226.309,183.066z"/>
</g>
</svg>
